<?xml version="1.0" encoding="UTF-8" standalone="no"?>
<svg
   version="1.1"
   x="0px"
   y="0px"
   viewBox="0 0 52.385052 93.846664"
   enable-background="new 0 0 100 100"
   xml:space="preserve"
   id="svg10"
   sodipodi:docname="noun-sri-lanka-29077.svg"
   width="52.385052"
   height="93.846664"
   inkscape:version="1.2.2 (b0a8486541, 2022-12-01)"
   xmlns:inkscape="http://www.inkscape.org/namespaces/inkscape"
   xmlns:sodipodi="http://sodipodi.sourceforge.net/DTD/sodipodi-0.dtd"
   xmlns="http://www.w3.org/2000/svg"
   xmlns:svg="http://www.w3.org/2000/svg"><defs
     id="defs14" /><sodipodi:namedview
     id="namedview12"
     pagecolor="#ffffff"
     bordercolor="#000000"
     borderopacity="0.25"
     inkscape:showpageshadow="2"
     inkscape:pageopacity="0.0"
     inkscape:pagecheckerboard="0"
     inkscape:deskcolor="#d1d1d1"
     showgrid="false"
     inkscape:zoom="6.616"
     inkscape:cx="9.3712213"
     inkscape:cy="33.025998"
     inkscape:window-width="1920"
     inkscape:window-height="1007"
     inkscape:window-x="0"
     inkscape:window-y="0"
     inkscape:window-maximized="1"
     inkscape:current-layer="svg10" /><path
     fill-rule="evenodd"
     clip-rule="evenodd"
     d="m 15.258,2.9633996 c -0.362,-0.449 -0.781,-0.865 -1.077,-1.354 -1.151,-1.90999996 -1.861,-2.06499996 -3.773,-0.75599996 -0.96,-0.264 -1.909,-0.683 -2.883,-0.75 -0.961,-0.066 -1.723,0.536 -1.91,1.55899996 -0.185,1.01 0.469,1.549 1.266,1.996 1.01,0.566 1.993,1.182 2.988,1.776 -0.511,0.178 -0.886,0.399 -0.251,0.893 0.495,0.385 1.063,0.699 1.486,1.15 0.656,0.7 0.752,1.399 -0.255,1.959 C 9.562,10.1524 9.183,11.0414 9.827,12.3864 c 0.572,1.196 0.414,2.232 -0.108,3.34 -0.324,0.688 -0.711,1.394 -0.818,2.128 -0.202,1.386 -0.949,2.145 -2.23,2.556 -1.09,0.349 -1.59,1.067 -1.26,2.276 0.246,0.904 0.426,1.834 0.545,2.764 0.251,1.98 0.494,3.973 -1.453,5.383 -0.23,0.167 -0.417,0.503 -0.468,0.789 -0.681,3.829 -1.7,7.625 -1.019,11.587 0.055,0.318 -0.526,0.966 -0.917,1.071 -0.306,0.083 -1.086,-0.403 -1.118,-0.694 -0.139,-1.277 -0.077,-2.576 -0.098,-3.866 -0.005,-0.345 -0.047,-0.69 -0.072,-1.035 -0.113,-0.007 -0.227,-0.015 -0.34,-0.022 -0.112,0.317 -0.345,0.645 -0.316,0.949 0.169,1.778 0.072,3.673 0.676,5.3 1.336,3.598 1.559,7.29 1.783,11.042 0.167,2.796 0.717,5.567 1.043,8.356 0.145,1.237 0.438,2.554 0.171,3.723 -0.574,2.52 0.169,4.75 0.961,7.031 0.668,1.928 1.291,3.871 1.924,5.812 0.664,2.036 1.164,4.144 2.022,6.094 0.783,1.783 1.709,3.669 3.678,4.458 2.193,0.877 4.453,1.614 6.732,2.236 0.884,0.241 2.005,0.266 2.836,-0.065 3.01,-1.201 5.925,-2.637 8.913,-3.894 1.042,-0.438 2.213,-0.559 3.293,-0.92 2.708,-0.905 5.471,-1.665 7.684,-3.672 1.287,-1.166 2.711,-2.208 4.177,-3.145 1.854,-1.184 2.872,-2.978 3.615,-4.878 0.908,-2.323 1.491,-4.772 2.229,-7.163 0.983,-3.188 0.224,-6.391 0.038,-9.579 -0.064,-1.122 -0.539,-2.221 -0.819,-3.299 -1.581,0.175 -1.934,-0.188 -1.729,-1.609 0.166,-1.152 -0.035,-2.072 -1.068,-2.824 -0.374,-0.273 -0.682,-1.149 -0.519,-1.541 0.331,-0.797 0.022,-1.09 -0.504,-1.554 -0.792,-0.698 -1.679,-1.418 -2.15,-2.323 -1.039,-1.995 -2.124,-3.904 -3.719,-5.536 -0.479,-0.49 -0.602,-1.429 -0.675,-2.182 -0.061,-0.636 0.384,-1.342 0.26,-1.946 -0.351,-1.701 -0.841,-3.377 -1.354,-5.04 -0.277,-0.901 -0.854,-0.922 -1.518,-0.294 -0.309,0.292 -0.734,0.802 -0.995,0.741 -0.967,-0.231 -1.888,-0.658 -2.855,-1.023 0.917,-1.595 1.567,-1.86 2.901,-1.162 -0.096,-0.626 -0.046,-1.201 -0.275,-1.625 -0.611,-1.129 -1.203,-2.321 -2.057,-3.255 -1.685,-1.845 -2.285,-4.998 -5.61,-4.747 0.066,-0.895 0.402,-1.767 0.127,-2.352 -1.13,-2.4 -1.654,-5.16 -3.96,-6.912 -0.59,-0.448 -1.061,-1.101 -1.459,-1.739 -0.534,-0.8570004 -1.224,-1.2780004 -2.226,-1.1890004 -0.27,-0.27 -0.539,-0.539 -0.809,-0.809 -0.813,-0.728 -1.626,-1.457 -2.438,-2.185 -1.074,-0.993 -2.148,-1.987 -3.221,-2.98 z M 4.333,20.2224 c 0.177,-0.119 0.354,-0.237 0.531,-0.355 -0.179,-0.442 -0.243,-1.004 -0.557,-1.307 -1.104,-1.061 -2.922,-1.34 -4.307,-0.522 1.57,0.791 2.951,1.487 4.333,2.184 z"
     id="path2"
     style="fill:#ffffff" /><path
     fill-rule="evenodd"
     clip-rule="evenodd"
     d="M 4.333,20.2224 C 2.951,19.5254 1.57,18.8294 0,18.0374 c 1.385,-0.817 3.203,-0.538 4.307,0.522 0.314,0.302 0.378,0.864 0.557,1.307 -0.177,0.119 -0.355,0.237 -0.531,0.356 z"
     id="path4"
     style="fill:#ffffff" /></svg>
